<?xml version="1.0" standalone="no"?>
<!DOCTYPE svg PUBLIC "-//W3C//DTD SVG 20010904//EN"
 "http://www.w3.org/TR/2001/REC-SVG-20010904/DTD/svg10.dtd">
<svg version="1.0" xmlns="http://www.w3.org/2000/svg"
 width="389.000000pt" height="389.000000pt" viewBox="0 0 389.000000 389.000000"
 preserveAspectRatio="xMidYMid meet">
<metadata>
Created by potrace 1.11, written by Peter Selinger 2001-2013
</metadata>
<g transform="translate(0.000000,389.000000) scale(0.100000,-0.100000)"
fill="#000000" stroke="none">
<path d="M1738 3875 c-549 -75 -1035 -431 -1261 -924 -30 -66 -97 -255 -97
-274 0 -5 -22 -39 -48 -76 -141 -193 -231 -397 -283 -641 -20 -90 -23 -135
-23 -315 0 -180 3 -225 23 -315 74 -346 235 -633 486 -867 339 -316 780 -470
1232 -430 164 14 190 14 356 -3 460 -47 931 124 1268 459 169 168 273 319 360
520 152 353 170 780 48 1146 -53 159 -139 324 -239 460 -23 31 -49 87 -69 149
-83 258 -224 482 -427 675 -356 340 -847 501 -1326 436z m470 -81 c181 -31
372 -100 527 -191 242 -142 471 -385 593 -628 48 -97 74 -157 68 -162 -2 -2
-35 23 -72 57 -148 131 -384 265 -571 324 -179 56 -273 70 -483 70 -117 1
-221 -4 -261 -12 -47 -8 -80 -9 -115 -2 -145 29 -406 22 -592 -16 -260 -54
-572 -215 -749 -387 -24 -22 -45 -39 -47 -36 -12 11 88 208 157 312 340 509
949 774 1545 671z m-490 -601 c20 -5 12 -10 -47 -33 -479 -186 -844 -592 -981
-1090 -44 -162 -66 -382 -53 -537 5 -50 5 -89 1 -87 -13 8 -86 149 -122 236
-95 230 -135 511 -106 748 24 198 21 190 140 309 58 58 145 134 193 168 169
119 398 219 592 258 140 28 333 42 383 28z m654 -3 c223 -18 401 -69 598 -171
145 -75 269 -167 391 -290 107 -108 105 -104 129 -299 29 -237 -11 -518 -106
-748 -36 -87 -109 -228 -122 -236 -4 -2 -4 35 1 82 14 150 -8 379 -53 542
-134 485 -490 889 -946 1075 -112 46 -111 45 -24 53 8 1 68 -3 132 -8z m-178
-459 c217 -57 373 -187 466 -386 59 -125 72 -189 77 -375 4 -141 2 -180 -16
-268 -24 -116 -49 -185 -62 -176 -5 3 -33 51 -61 107 -28 56 -70 133 -94 170
-43 66 -44 71 -49 167 -19 362 -218 600 -503 600 -244 0 -424 -149 -489 -406
-13 -53 -17 -109 -17 -239 1 -189 16 -268 74 -391 38 -78 131 -180 198 -217
144 -78 360 -73 495 13 l48 30 -76 150 c-88 173 -145 244 -233 287 -51 25 -68
28 -154 28 l-98 0 0 40 c0 22 4 45 8 52 9 15 117 42 195 50 116 10 248 -40
345 -131 67 -63 115 -132 177 -256 94 -188 150 -254 250 -296 39 -16 102 -15
177 2 26 6 29 3 59 -62 17 -38 33 -81 36 -96 5 -24 2 -28 -38 -39 -66 -19
-223 -16 -294 5 -64 19 -146 58 -182 86 -21 16 -25 15 -100 -22 -126 -62 -214
-80 -383 -81 -206 0 -330 29 -465 111 -183 111 -295 318 -326 599 -55 505 184
871 626 959 100 19 306 12 409 -15z m-1863 -427 c-3 -181 6 -273 46 -434 44
-182 128 -367 239 -528 50 -72 72 -117 99 -198 149 -454 488 -819 928 -998
l107 -44 -52 -6 c-70 -9 -265 9 -386 35 -307 66 -620 249 -824 484 -372 427
-489 992 -313 1521 35 107 143 334 159 334 0 0 -1 -75 -3 -166z m3310 32 c213
-420 220 -916 19 -1343 -154 -328 -422 -598 -740 -747 -206 -96 -370 -135
-597 -143 -90 -3 -163 -3 -163 0 0 3 25 15 56 27 359 134 685 425 863 770 33
64 78 168 99 231 28 85 52 134 93 192 154 220 254 474 289 732 7 51 10 161 9
253 -5 186 -7 185 72 28z m-548 -1243 c-18 -54 -108 -228 -150 -293 -210 -319
-537 -557 -902 -654 l-91 -25 -88 24 c-169 45 -309 109 -467 214 -129 85 -327
280 -413 408 -66 97 -179 319 -169 330 4 3 28 -14 54 -39 168 -156 416 -292
653 -357 276 -75 583 -75 860 1 137 37 316 117 437 194 71 45 209 152 242 188
28 30 43 34 34 9z"/>
</g>
</svg>
